<svg width="176" height="41" viewBox="0 0 176 41" fill="none" xmlns="http://www.w3.org/2000/svg">
<g id="Name" clip-path="url(#clip0_61_627)">
<path id="Vector" d="M69.207 21.162V22.486H70.5419V21.162C70.5419 20.4312 71.14 19.838 71.8769 19.838H87.8958V26.4581C87.8958 27.189 87.2977 27.7821 86.5609 27.7821H69.207V31.7542H83.8911C86.8403 31.7542 89.2307 29.3833 89.2307 26.4581V15.866H74.5467C71.5974 15.866 69.207 18.2368 69.207 21.162Z" fill="white"/>
<path id="Vector_2" d="M138.623 19.838H141.292V15.866H137.288H122.604C119.654 15.866 117.264 18.2368 117.264 21.162V22.486H118.599V21.162C118.599 20.4312 119.197 19.838 119.934 19.838H135.953V26.4581C135.953 27.189 135.355 27.7821 134.618 27.7821H113.259V15.866H98.5752C95.626 15.866 93.2356 18.2368 93.2356 21.162V31.7542H111.924V35.7262C111.924 36.4571 111.326 37.0502 110.589 37.0502H94.5705V41.0223H107.92C110.869 41.0223 113.259 38.6514 113.259 35.7262V31.7542H133.283C135.495 31.7542 137.288 29.9765 137.288 27.7821V21.162C137.288 20.4312 137.886 19.838 138.623 19.838ZM111.924 27.7821H94.5705V21.162C94.5705 20.4312 95.1685 19.838 95.9054 19.838H111.924V27.7821Z" fill="white"/>
<path id="Vector_3" d="M127.276 35.402L124.444 38.2107L127.276 41.0194L130.107 38.2107L127.276 35.402Z" fill="white"/>
<path id="Vector_4" d="M149.302 26.4581C149.302 27.189 148.704 27.7821 147.967 27.7821H137.288V31.7542H145.297C148.246 31.7542 150.637 29.3833 150.637 26.4581V-0.0222168H149.302V26.4581Z" fill="white"/>
<path id="Vector_5" d="M159.981 -0.0222168H158.646V31.7542H159.981V-0.0222168Z" fill="white"/>
<path id="Vector_6" d="M16.9444 21.0455C17.1616 20.9043 17.3253 20.7207 17.4321 20.5C17.5389 20.2776 17.5923 20.0145 17.5923 19.7109C17.5923 19.5114 17.5691 19.2731 17.5229 18.9959C17.4766 18.7187 17.4054 18.3992 17.3075 18.0356L17.2416 18.0002L16.8964 18.1203C16.9569 18.3198 17.012 18.5246 17.0619 18.7329C17.1117 18.9412 17.1527 19.1318 17.1829 19.3031C17.2132 19.4743 17.2274 19.612 17.2274 19.7109C17.2274 19.951 17.1242 20.1911 16.9159 20.4311C16.7077 20.6712 16.4087 20.8689 16.0171 21.0261L16.1257 21.3615C16.4532 21.2926 16.7255 21.1885 16.9426 21.0455H16.9444Z" fill="white"/>
<path id="Vector_7" d="M22.6293 19.9758C22.7931 20.0605 22.9889 20.1012 23.2203 20.1012C23.4712 20.1012 23.6795 20.0729 23.8503 20.0146C23.9963 19.9652 24.1084 19.8928 24.1921 19.7993C24.2775 19.8928 24.395 19.9652 24.5463 20.0146C24.7243 20.0729 24.9467 20.1012 25.2173 20.1012C25.4682 20.1012 25.6765 20.0729 25.8474 20.0146C25.9933 19.9652 26.1054 19.8928 26.1891 19.7993C26.2745 19.8928 26.392 19.9652 26.5433 20.0146C26.7213 20.0729 26.9438 20.1012 27.2143 20.1012H28.3641C28.7343 20.1012 29.0173 20.0358 29.2113 19.9034C29.2576 19.8717 29.2968 19.8363 29.3324 19.7975C29.4089 19.8858 29.5068 19.9564 29.6296 20.0076C29.7791 20.0694 29.9571 20.1012 30.1618 20.1012C30.3665 20.1012 30.5498 20.0694 30.6975 20.0076C30.815 19.9582 30.9093 19.8911 30.9841 19.8063C31.009 19.8363 31.0357 19.8664 31.066 19.8928C31.2297 20.0305 31.454 20.0994 31.7405 20.0994C32.052 20.0994 32.2816 20.0146 32.4329 19.8469C32.5842 19.6792 32.659 19.4215 32.659 19.0719C32.659 18.9872 32.6554 18.8795 32.6465 18.7471C32.6376 18.6147 32.6287 18.4788 32.6198 18.3393C32.6109 18.1999 32.5967 18.0781 32.5807 17.9739L32.5148 17.9386L32.1642 18.0039C32.1998 18.2687 32.2282 18.4735 32.2496 18.62C32.2692 18.7665 32.2834 18.876 32.2887 18.9501C32.2941 19.0243 32.2977 19.0861 32.2977 19.1337C32.2977 19.245 32.2798 19.3332 32.2425 19.395C32.2069 19.4568 32.1464 19.5009 32.0645 19.5239C31.9826 19.5486 31.874 19.5592 31.7405 19.5592C31.5234 19.5592 31.3757 19.5274 31.2991 19.4656C31.2226 19.4038 31.1834 19.2944 31.1834 19.139V18.154L31.1176 18.1187L30.7972 18.191V19.139C30.7972 19.2997 30.7527 19.4091 30.6619 19.4692C30.5712 19.5292 30.4039 19.5592 30.1618 19.5592C29.9197 19.5592 29.7631 19.5327 29.6688 19.478C29.5744 19.4233 29.5264 19.3315 29.5264 19.1991V18.214L29.4605 18.1787L29.1401 18.2511V19.1991C29.1401 19.3385 29.0867 19.4338 28.98 19.485C28.8732 19.5345 28.6685 19.5592 28.3659 19.5592H27.2161C26.9936 19.5592 26.8227 19.5486 26.7017 19.5256C26.5807 19.5045 26.497 19.4621 26.4507 19.4003C26.4045 19.3385 26.3813 19.252 26.3813 19.139V18.154L26.3155 18.1187L25.9951 18.191V19.139C25.9951 19.3103 25.9417 19.4233 25.8349 19.478C25.7281 19.5327 25.5234 19.5592 25.2208 19.5592C24.9984 19.5592 24.8275 19.5486 24.7065 19.5256C24.5854 19.5045 24.5018 19.4621 24.4555 19.4003C24.4092 19.3385 24.3861 19.252 24.3861 19.139V18.154L24.3202 18.1187L23.9998 18.191V19.139C23.9998 19.3103 23.9464 19.4233 23.8397 19.478C23.7329 19.5327 23.5282 19.5592 23.2256 19.5592C23.0601 19.5592 22.923 19.5398 22.8144 19.4992C22.7059 19.4586 22.6187 19.3968 22.551 19.3103C22.4852 19.2238 22.4282 19.1125 22.3837 18.9766L22.2876 18.6765C22.1915 18.3799 22.0633 18.1628 21.9031 18.0251C21.743 17.8874 21.5667 17.8185 21.3745 17.8185C21.2054 17.8185 21.0541 17.875 20.9242 17.9898C20.7943 18.1045 20.6448 18.3005 20.4792 18.5812L20.0556 19.3014C19.9987 19.3968 19.9346 19.4639 19.8616 19.5027C19.7886 19.5415 19.6801 19.5592 19.5341 19.5592C19.3366 19.5592 19.1835 19.5486 19.0767 19.5256C18.9699 19.5045 18.8951 19.4621 18.8524 19.4003C18.8097 19.3385 18.7883 19.252 18.7883 19.139L18.8061 15.7531L18.7403 15.7178L18.322 15.8202L18.3701 19.139C18.3736 19.3668 18.4181 19.5521 18.5 19.6951C18.5819 19.8363 18.7083 19.9405 18.8773 20.0041C19.0464 20.0676 19.2654 20.0994 19.5306 20.0994C19.6712 20.0994 19.7922 20.0853 19.8901 20.0552C19.988 20.0252 20.0752 19.9776 20.1464 19.914C20.2158 19.854 20.2781 19.7728 20.3351 19.6775C20.3831 19.7287 20.4347 19.7799 20.4899 19.824C20.627 19.9317 20.7818 20.0146 20.9527 20.0729C21.1236 20.1312 21.3033 20.1594 21.4884 20.1594C21.702 20.1594 21.8729 20.1153 21.9993 20.027C22.1256 19.9387 22.2146 19.8046 22.2627 19.6245C22.3428 19.7728 22.4656 19.8893 22.6293 19.9723V19.9758ZM21.8426 19.5221C21.7714 19.5874 21.654 19.621 21.4884 19.621C21.3389 19.621 21.1912 19.5963 21.0435 19.5486C20.8957 19.5009 20.7658 19.4356 20.6501 19.3544C20.6198 19.3332 20.5914 19.3103 20.5665 19.2873L20.7694 18.9431C20.8993 18.7224 21.0079 18.5688 21.0969 18.4806C21.1858 18.3923 21.2766 18.3482 21.3692 18.3482C21.4706 18.3482 21.565 18.3888 21.654 18.4717C21.743 18.5529 21.8141 18.6606 21.8693 18.7895C21.9245 18.9201 21.9512 19.0561 21.9512 19.2008C21.9512 19.3456 21.9156 19.4568 21.8462 19.5221H21.8426Z" fill="white"/>
<path id="Vector_8" d="M24.1906 16.1396L23.7966 16.5303L24.1906 16.921L24.5845 16.5303L24.1906 16.1396Z" fill="white"/>
<path id="Vector_9" d="M23.705 16.8593L23.311 17.25L23.705 17.6407L24.0989 17.25L23.705 16.8593Z" fill="white"/>
<path id="Vector_10" d="M24.6744 16.86L24.2805 17.2507L24.6744 17.6414L25.0684 17.2507L24.6744 16.86Z" fill="white"/>
<path id="Vector_11" d="M25.7328 16.8586L25.3389 17.2493L25.7328 17.64L26.1267 17.2493L25.7328 16.8586Z" fill="white"/>
<path id="Vector_12" d="M26.64 16.8593L26.2461 17.25L26.64 17.6407L27.034 17.25L26.64 16.8593Z" fill="white"/>
<path id="Vector_13" d="M34.7147 17.9384C34.5759 18.152 34.4015 18.3691 34.1879 18.5881C33.9244 18.8599 33.5916 19.153 33.1929 19.4637V19.9986C33.289 20.0303 33.4029 20.0604 33.5347 20.0851C33.6664 20.1098 33.807 20.1292 33.9583 20.1416C34.1096 20.1539 34.2573 20.1592 34.4032 20.1592C34.7218 20.1592 34.9817 20.1257 35.1846 20.0604C35.3857 19.995 35.5352 19.8927 35.6331 19.7567C35.7292 19.6208 35.7791 19.4531 35.7791 19.2518C35.7791 19.0876 35.7453 18.9058 35.6794 18.7081C35.6136 18.5104 35.5139 18.3021 35.3822 18.0832C35.3412 18.0161 35.2967 17.9472 35.2505 17.8766C35.3092 17.7742 35.3608 17.6718 35.4071 17.5677C35.5174 17.3099 35.5975 17.0328 35.6456 16.7362C35.6937 16.4396 35.7186 16.1113 35.7186 15.7511L35.6527 15.7158L35.2344 15.8182V16.023C35.2344 16.3637 35.2024 16.6744 35.1383 16.9586C35.0974 17.1369 35.0387 17.3117 34.9639 17.4812C34.9425 17.4547 34.923 17.4265 34.8998 17.4C34.7076 17.1616 34.4869 16.918 34.2341 16.6709C33.9814 16.422 33.702 16.173 33.3958 15.9206L33.33 15.9559L33.1182 16.316C33.4457 16.5914 33.7482 16.8739 34.0295 17.1599C34.2911 17.4282 34.5207 17.686 34.7201 17.9366L34.7147 17.9384ZM34.9532 18.3215C34.9621 18.3109 34.9675 18.3003 34.9764 18.2897C35.0814 18.4415 35.1704 18.5845 35.2416 18.7169C35.3573 18.9358 35.4142 19.1141 35.4142 19.2536C35.4142 19.3419 35.384 19.4125 35.327 19.4672C35.2683 19.5219 35.1721 19.5608 35.0387 19.5837C34.9052 19.6084 34.7236 19.619 34.494 19.619C34.332 19.619 34.1701 19.612 34.0063 19.5978C33.8746 19.5872 33.7536 19.5714 33.6397 19.5555C33.8622 19.3825 34.0668 19.2165 34.2466 19.0576C34.5296 18.807 34.7646 18.5616 34.955 18.3197L34.9532 18.3215Z" fill="white"/>
<path id="Vector_14" d="M36.9876 20.1011L37.0481 15.7548L36.9822 15.7195L36.564 15.8219L36.6245 20.1011H36.9876Z" fill="white"/>
<path id="Vector_15" d="M39.8499 20.1011C39.9264 20.1011 40.0118 20.0958 40.1062 20.087C40.2005 20.0764 40.2984 20.064 40.3963 20.0481C40.4443 20.0411 40.4906 20.0322 40.5351 20.0234C40.512 20.0781 40.4853 20.1329 40.4532 20.184C40.3447 20.3535 40.1685 20.5053 39.9264 20.6395C39.6843 20.7737 39.3622 20.9008 38.9581 21.0208L39.0311 21.3633C39.3497 21.3351 39.6309 21.2768 39.873 21.1868C40.1151 21.0967 40.318 20.9749 40.4835 20.8231C40.649 20.6713 40.7736 20.4895 40.8555 20.2776C40.9374 20.0658 40.9801 19.8239 40.9801 19.5521C40.9801 19.2519 40.9338 18.9748 40.8412 18.7206C40.7487 18.4664 40.6205 18.2633 40.4604 18.1115C40.2984 17.9597 40.1151 17.8838 39.9104 17.8838C39.7377 17.8838 39.5758 17.9403 39.4262 18.0515C39.2767 18.1627 39.1557 18.3163 39.0631 18.507C38.9706 18.6994 38.9243 18.9148 38.9243 19.1548C38.9243 19.455 39.0044 19.688 39.1628 19.8539C39.323 20.0199 39.5508 20.1028 39.8499 20.1028V20.1011ZM39.3657 18.7841C39.4173 18.6694 39.4868 18.5776 39.5722 18.5087C39.6576 18.4381 39.7502 18.4028 39.8499 18.4028C39.9833 18.4028 40.1079 18.4593 40.2254 18.574C40.3429 18.6888 40.4372 18.8353 40.5102 19.0189C40.5671 19.1619 40.601 19.3137 40.6134 19.4708C40.544 19.4867 40.4746 19.5009 40.4016 19.5132C40.3091 19.5291 40.2165 19.5415 40.124 19.5485C40.0314 19.5556 39.9406 19.5609 39.8516 19.5609C39.6541 19.5609 39.5099 19.5326 39.4227 19.4761C39.3337 19.4196 39.2892 19.312 39.2892 19.1513C39.2892 19.0189 39.3159 18.8971 39.3675 18.7824L39.3657 18.7841Z" fill="white"/>
<path id="Vector_16" d="M42.3131 21.0261L42.4217 21.3615C42.7492 21.2927 43.0215 21.1885 43.2387 21.0455C43.4558 20.9043 43.6196 20.7207 43.7264 20.5C43.8047 20.3394 43.8527 20.1558 43.8741 19.951C43.9542 19.9916 44.0521 20.0251 44.1678 20.0498C44.3191 20.0834 44.4881 20.101 44.6733 20.101H45.8231C46.2057 20.101 46.4941 20.0234 46.6845 19.8662C46.8767 19.7109 46.9729 19.4461 46.9729 19.0736C46.9729 18.9889 46.9693 18.8653 46.9604 18.7011C46.9533 18.5369 46.9426 18.3604 46.9337 18.1733C46.923 17.9861 46.9123 17.8184 46.8999 17.6754L46.834 17.6401L46.446 17.7055C46.4781 17.9738 46.5048 18.1927 46.5279 18.3622C46.5492 18.5316 46.5653 18.6658 46.5759 18.7647C46.5866 18.8635 46.5937 18.9394 46.5973 18.9924C46.6009 19.0454 46.6026 19.093 46.6026 19.1336C46.6026 19.2572 46.5813 19.349 46.5386 19.409C46.4959 19.469 46.4193 19.5096 46.3054 19.5291C46.1933 19.5485 46.0313 19.5591 45.8213 19.5591H44.6715C44.4775 19.5591 44.3262 19.5503 44.2176 19.5326C44.109 19.5149 44.0307 19.4832 43.9809 19.439C43.9328 19.3949 43.899 19.3331 43.8776 19.2537L43.6 18.0356L43.5341 18.0003L43.1888 18.1203C43.2493 18.3198 43.3045 18.5246 43.3544 18.7329C43.4042 18.9412 43.4451 19.1319 43.4754 19.3031C43.5056 19.4743 43.5199 19.612 43.5199 19.7109C43.5199 19.9545 43.4167 20.1964 43.2084 20.4347C43.0002 20.673 42.7011 20.869 42.3096 21.0261H42.3131Z" fill="white"/>
<path id="Vector_17" d="M45.7326 20.5729L45.3386 20.9636L45.7326 21.3543L46.1265 20.9636L45.7326 20.5729Z" fill="white"/>
<path id="Vector_18" d="M46.6415 20.5736L46.2476 20.9644L46.6415 21.3551L47.0354 20.9644L46.6415 20.5736Z" fill="white"/>
<path id="Vector_19" d="M55.6591 16.8593L55.2651 17.25L55.6591 17.6407L56.053 17.25L55.6591 16.8593Z" fill="white"/>
<path id="Vector_20" d="M54.7501 16.8586L54.3562 17.2493L54.7501 17.64L55.1441 17.2493L54.7501 16.8586Z" fill="white"/>
<path id="Vector_21" d="M58.9549 15.8219L58.9852 19.2008C58.9852 19.3014 58.9638 19.3774 58.9193 19.4285C58.8749 19.4797 58.7983 19.5151 58.6897 19.5345C58.5812 19.5539 58.4281 19.5609 58.2305 19.5609C58.008 19.5609 57.8372 19.5504 57.7161 19.5274C57.5951 19.5062 57.5115 19.4639 57.4652 19.4021C57.4189 19.3403 57.3958 19.2538 57.3958 19.1408L57.4438 15.7548L57.378 15.7195L56.9597 15.8219L57.0078 19.1408C57.0113 19.312 56.9597 19.425 56.8511 19.4797C56.7426 19.5345 56.5361 19.5609 56.2335 19.5609C56.011 19.5609 55.8402 19.5504 55.7191 19.5274C55.5981 19.5062 55.5144 19.4639 55.4682 19.4021C55.4219 19.3403 55.3987 19.2538 55.3987 19.1408V18.1557L55.3329 18.1204L55.0125 18.1928V19.1408C55.0125 19.312 54.9591 19.425 54.8523 19.4797C54.7455 19.5345 54.5408 19.5609 54.2383 19.5609C54.0087 19.5609 53.8235 19.5574 53.6812 19.5486C53.6171 19.5451 53.553 19.5398 53.4925 19.5327C53.6651 19.335 53.7541 19.0984 53.7541 18.823C53.7541 18.5953 53.699 18.3923 53.5904 18.214C53.4818 18.0357 53.3394 17.8962 53.1632 17.7938C52.987 17.6914 52.7948 17.6402 52.5848 17.6402C52.3391 17.6402 52.0882 17.7179 51.8336 17.875C51.5791 18.0304 51.3282 18.2581 51.0807 18.5565C51.0665 18.5741 51.0523 18.5935 51.038 18.6094L51.0897 15.7548L51.0238 15.7195L50.6055 15.8219L50.6643 19.1355C50.5806 19.2679 50.4969 19.4109 50.4151 19.5609H50.0627H49.6996C49.6996 19.2626 49.6533 18.9872 49.5607 18.733C49.4682 18.477 49.34 18.2705 49.1798 18.1151C49.0179 17.9598 48.8345 17.8803 48.6299 17.8803C48.4572 17.8803 48.2952 17.9368 48.1457 18.048C47.9962 18.1593 47.8752 18.3128 47.7826 18.5035C47.6901 18.6959 47.6438 18.9113 47.6438 19.1514C47.6438 19.4515 47.7239 19.6845 47.8823 19.8505C48.0425 20.0164 48.2703 20.0994 48.5693 20.0994H49.219C49.2048 20.1259 49.1923 20.1541 49.1745 20.1806C49.0659 20.3501 48.8897 20.5019 48.6477 20.6361C48.4056 20.7702 48.0834 20.8973 47.6794 21.0174L47.7524 21.3598C48.071 21.3316 48.3522 21.2733 48.5943 21.1851C48.8363 21.0968 49.0392 20.9785 49.2048 20.8285C49.3703 20.6784 49.4949 20.4984 49.5768 20.2883C49.5999 20.2283 49.6195 20.1647 49.6373 20.0994H50.0644H51.7838C52.2875 20.0994 52.6969 20.0252 53.0137 19.8805C53.1988 19.9546 53.3964 20.0129 53.61 20.0447C53.8467 20.08 54.0567 20.0994 54.2418 20.0994C54.4928 20.0994 54.701 20.0711 54.8719 20.0129C55.0178 19.9635 55.13 19.8911 55.2136 19.7975C55.2991 19.8911 55.4165 19.9635 55.5678 20.0129C55.7458 20.0711 55.9683 20.0994 56.2388 20.0994C56.4898 20.0994 56.6981 20.0711 56.8689 20.0129C57.0149 19.9635 57.127 19.8911 57.2107 19.7975C57.2961 19.8911 57.4136 19.9635 57.5649 20.0129C57.7428 20.0711 57.9653 20.0994 58.2359 20.0994C58.4904 20.0994 58.7022 20.0694 58.8713 20.0094C59.0404 19.9493 59.1703 19.854 59.2593 19.7216C59.3483 19.5892 59.3946 19.4162 59.3981 19.1991L59.4462 15.7531L59.3803 15.7178L58.9621 15.8202L58.9549 15.8219ZM48.564 19.5609C48.3664 19.5609 48.2223 19.5327 48.135 19.4762C48.0461 19.4197 48.0016 19.312 48.0016 19.1514C48.0016 19.019 48.0283 18.8972 48.0799 18.7824C48.1315 18.6677 48.2009 18.5759 48.2863 18.507C48.3718 18.4364 48.4643 18.4011 48.564 18.4011C48.6975 18.4011 48.8221 18.4576 48.9396 18.5724C49.057 18.6871 49.1514 18.8336 49.2243 19.0172C49.292 19.1885 49.3276 19.3703 49.3311 19.5609H48.564ZM53.2184 19.2308C53.1063 19.3385 52.93 19.4215 52.6951 19.4762C52.4584 19.5327 52.154 19.5609 51.7785 19.5609H50.8209C51.0879 19.1355 51.3602 18.8036 51.6414 18.5671C51.9582 18.3005 52.2715 18.1681 52.583 18.1681C52.7289 18.1681 52.8624 18.1963 52.9852 18.2528C53.108 18.3093 53.2059 18.3852 53.2789 18.4841C53.3519 18.5829 53.3875 18.6995 53.3875 18.8354C53.3875 18.9907 53.3305 19.1231 53.2184 19.2308Z" fill="white"/>
<path id="Vector_22" d="M17.3571 30.3678L16.9631 30.7585L17.3571 31.1493L17.751 30.7585L17.3571 30.3678Z" fill="white"/>
<path id="Vector_23" d="M18.264 30.3686L17.8701 30.7593L18.264 31.15L18.658 30.7593L18.264 30.3686Z" fill="white"/>
<path id="Vector_24" d="M18.5145 26.8677C18.6568 26.7971 18.8099 26.7618 18.9719 26.7618C19.0288 26.7618 19.0894 26.7671 19.1534 26.7759C19.2175 26.7865 19.294 26.8042 19.383 26.8324L19.5592 26.3699C19.4738 26.3257 19.383 26.2922 19.2869 26.2675C19.1908 26.2428 19.0858 26.2322 18.9719 26.2322C18.7779 26.2322 18.6017 26.2657 18.4433 26.3346C18.2831 26.4034 18.146 26.497 18.0321 26.6206C17.9164 26.7424 17.8274 26.8871 17.7633 27.0548C17.6993 27.2225 17.6672 27.4079 17.6672 27.6074C17.6672 27.8069 17.7099 27.964 17.7936 28.0664C17.879 28.1688 18.0357 28.2412 18.2653 28.2853L18.6711 28.3577C18.8526 28.3894 18.979 28.4336 19.052 28.4901C19.125 28.5466 19.1605 28.6225 19.1605 28.7178C19.1605 28.8502 19.1036 28.9632 18.9879 29.0567C18.8722 29.1503 18.7138 29.2245 18.5091 29.2757C18.3044 29.3268 18.073 29.3533 17.8096 29.3533C17.338 29.3533 16.998 29.258 16.7933 29.0691C16.5868 28.8784 16.4854 28.6136 16.4854 28.2729C16.4854 28.1617 16.4943 28.0311 16.5121 27.8863C16.5299 27.7398 16.5548 27.5897 16.5868 27.4361C16.6189 27.2826 16.6527 27.1343 16.6901 26.9948L16.3448 26.8924C16.2843 27.0478 16.2326 27.2031 16.1881 27.3585C16.1436 27.5121 16.1098 27.6639 16.0849 27.8139C16.06 27.964 16.0493 28.1176 16.0493 28.2729C16.0493 28.5978 16.1098 28.8802 16.2309 29.1221C16.3519 29.3639 16.5423 29.5528 16.8004 29.6887C17.0585 29.8247 17.3949 29.8935 17.8114 29.8935C18.1496 29.8935 18.4486 29.8494 18.7067 29.7611C18.9648 29.6729 19.1659 29.5405 19.3083 29.3622C19.4507 29.1839 19.5236 28.9561 19.5236 28.6807C19.5236 28.4495 19.4667 28.2641 19.351 28.1282C19.2353 27.9922 19.0466 27.9004 18.785 27.8528L18.4522 27.7928C18.2991 27.7645 18.1923 27.7274 18.1318 27.6815C18.0713 27.6356 18.041 27.5686 18.041 27.4803C18.041 27.3602 18.0837 27.2455 18.1709 27.1343C18.2581 27.0248 18.3721 26.9348 18.5162 26.8642L18.5145 26.8677Z" fill="white"/>
<path id="Vector_25" d="M21.0897 26.5092L21.0239 26.4739L20.6786 26.5939C20.7391 26.7934 20.7943 26.9982 20.8441 27.2065C20.8939 27.4148 20.9349 27.6055 20.9651 27.7767C20.9954 27.9479 21.0096 28.0856 21.0096 28.1845C21.0096 28.4246 20.9064 28.6647 20.6982 28.9048C20.4899 29.1449 20.1909 29.3426 19.7993 29.4997L19.9079 29.8351C20.2354 29.7663 20.5077 29.6621 20.7249 29.5191C20.942 29.3779 21.1057 29.1943 21.2125 28.9736C21.3193 28.7512 21.3727 28.4881 21.3727 28.1845C21.3727 27.985 21.3496 27.7467 21.3033 27.4695C21.257 27.1924 21.1858 26.8728 21.088 26.5092H21.0897Z" fill="white"/>
<path id="Vector_26" d="M52.6314 24.9083L52.2375 25.2991L52.6315 25.6897L53.0254 25.2989L52.6314 24.9083Z" fill="white"/>
<path id="Vector_27" d="M51.7253 24.9165L51.3313 25.3071L51.7252 25.6979L52.1192 25.3073L51.7253 24.9165Z" fill="white"/>
<path id="Vector_28" d="M57.6238 24.2955L57.654 27.6744C57.654 27.775 57.6327 27.8509 57.5882 27.9021C57.5437 27.9533 57.4671 27.9886 57.3586 28.008C57.25 28.0275 57.0969 28.0345 56.8994 28.0345C56.6324 28.0345 56.4099 28.0292 56.2301 28.0204C56.0717 28.0116 55.9364 27.9922 55.8154 27.9674C55.9756 27.8527 56.1091 27.7256 56.2105 27.5826C56.3583 27.376 56.4313 27.1483 56.4313 26.8959C56.4313 26.6205 56.3351 26.4104 56.1411 26.2692C55.9471 26.1279 55.6463 26.0556 55.2387 26.0556C55.0536 26.0556 54.8632 26.0715 54.6692 26.1032C54.4752 26.135 54.242 26.1897 53.9679 26.2656L53.8522 26.7811L54.3488 27.339C54.541 27.5579 54.7101 27.7397 54.8596 27.8845C54.7404 27.9127 54.6158 27.9392 54.4823 27.9604C54.1637 28.0098 53.8184 28.0345 53.4482 28.0345C53.247 28.0345 53.0673 28.0292 52.9017 28.0186C53.0708 27.8262 53.1581 27.5808 53.1581 27.2843C53.1581 27.0477 53.1136 26.8323 53.0246 26.6399C52.9356 26.4457 52.8163 26.2904 52.6668 26.1721C52.5173 26.0538 52.3535 25.9955 52.1773 25.9955C52.0011 25.9955 51.8356 26.0538 51.6879 26.1721C51.5384 26.2904 51.4191 26.4457 51.3301 26.6399C51.2411 26.8341 51.1966 27.0495 51.1966 27.2843C51.1966 27.5826 51.2838 27.8262 51.4529 28.0186C51.2874 28.0275 51.1076 28.0345 50.9065 28.0345H23.3112C23.1137 28.0345 22.9606 28.0239 22.8538 28.001C22.747 27.9798 22.6722 27.9374 22.6295 27.8756C22.5868 27.8139 22.5654 27.7274 22.5654 27.6144L22.5832 24.2284L22.5174 24.1931L22.0991 24.2955L22.1472 27.6144C22.1507 27.8421 22.1952 28.0275 22.2771 28.1705C22.359 28.3117 22.4854 28.4158 22.6544 28.4794C22.8235 28.5429 23.0425 28.5747 23.3077 28.5747H50.9029C51.4191 28.5747 51.8409 28.5271 52.1738 28.4335C52.5066 28.5271 52.9284 28.5747 53.4446 28.5747C53.8753 28.5747 54.2723 28.5341 54.6336 28.4547C54.8739 28.4017 55.0928 28.3311 55.2921 28.2481C55.4256 28.3382 55.5662 28.407 55.7122 28.4547C55.8617 28.5023 56.0308 28.5341 56.2212 28.55C56.4099 28.5659 56.6342 28.5747 56.8922 28.5747C57.1503 28.5747 57.3586 28.5447 57.5277 28.4847C57.6967 28.4247 57.8267 28.3293 57.9157 28.1969C58.0047 28.0645 58.0509 27.8915 58.0545 27.6744L58.1026 24.2284L58.0367 24.1931L57.6184 24.2955H57.6238ZM52.6098 27.7203C52.5137 27.8068 52.3678 27.8739 52.1773 27.9233C51.9869 27.8739 51.8409 27.8068 51.7448 27.7203C51.622 27.6108 51.5597 27.4661 51.5597 27.286C51.5597 27.1501 51.5882 27.0247 51.6452 26.9082C51.7021 26.7917 51.7769 26.6999 51.8712 26.6293C51.9655 26.5587 52.0688 26.5252 52.1773 26.5252C52.2859 26.5252 52.3927 26.5605 52.4853 26.6293C52.5778 26.6999 52.6526 26.7917 52.7095 26.9082C52.7665 27.0247 52.795 27.1501 52.795 27.286C52.795 27.4661 52.7327 27.6108 52.6098 27.7203ZM55.317 27.7415C55.317 27.7415 55.3135 27.7415 55.3117 27.7432C55.2334 27.6868 55.1533 27.6214 55.0696 27.5402C54.9522 27.4255 54.8151 27.2807 54.6585 27.106L54.2829 26.6876C54.3702 26.6681 54.4502 26.6505 54.5179 26.6381C54.6638 26.6099 54.7884 26.5905 54.8952 26.5816C55.002 26.571 55.1159 26.5675 55.237 26.5675C55.5644 26.5675 55.7852 26.5993 55.8991 26.6628C56.0148 26.7264 56.0717 26.8253 56.0717 26.9577C56.0717 27.1218 56.0059 27.2701 55.8724 27.4025C55.7389 27.5349 55.5538 27.6479 55.3153 27.745L55.317 27.7415Z" fill="white"/>
<path id="Vector_29" d="M58.9551 24.2955L59.0156 28.5747H59.3787L59.4392 24.2284L59.3733 24.1931L58.9551 24.2955Z" fill="white"/>
</g>
<defs>
<clipPath id="clip0_61_627">
<rect width="176" height="41" fill="white"/>
</clipPath>
</defs>
</svg>
